<svg width="100%" height="558.624" viewBox="0 0 414 558.624" fill="none" xmlns="http://www.w3.org/2000/svg"><path d="M351.863 289.517c95.326 81.735 230.131 8.96 254.08-19.347L324.351-256.371-197.885 22.918c-.148 9.943 9.414 42.137 48.867 91.373C-99.704 175.835 2.506 243.526 81.585 221.322c184.155-51.707 144.741-39.445 270.278 68.194Z" fill="#EEF7FE"/><path fill-rule="evenodd" clip-rule="evenodd" d="M418.834 121.862a22.621 22.621 0 0 0-6.575.974c-3.797-15.994-18.17-27.89-35.326-27.89-17.049 0-31.351 11.752-35.253 27.596a22.68 22.68 0 0 0-5.505-.678c-12.503 0-22.638 10.136-22.638 22.639 0 12.504 10.136 22.639 22.638 22.639h35.221a36.642 36.642 0 0 0 11.074 0h36.364c12.503 0 22.638-10.136 22.638-22.639s-10.136-22.639-22.638-22.639Zm-157.79-62.484c-.73 0-1.435.111-2.1.311-1.212-5.106-5.801-8.905-11.279-8.905-5.443 0-10.011 3.752-11.256 8.81a7.228 7.228 0 1 0-1.759 14.239h11.245a11.695 11.695 0 0 0 3.536 0h11.611a7.228 7.228 0 1 0 0-14.456ZM28.1 153.217c-.73 0-1.435.109-2.1.311-1.212-5.106-5.801-8.905-11.279-8.905-5.442 0-10.011 3.752-11.256 8.81a7.229 7.229 0 1 0-1.758 14.24h11.244a11.811 11.811 0 0 0 3.536 0h11.611a7.229 7.229 0 0 0 0-14.458ZM76.676 24.049c-.73 0-1.435.111-2.1.311-1.212-5.105-5.801-8.904-11.279-8.904-5.442 0-10.011 3.752-11.256 8.81a7.228 7.228 0 1 0-1.758 14.239h11.246a11.68 11.68 0 0 0 3.535 0h11.611a7.228 7.228 0 1 0 0-14.456Z" fill="#DDEEFB"/><path fill-rule="evenodd" clip-rule="evenodd" d="m180.432 292.966-74.934-.026c-3.917-.002-7.121-3.2-7.12-7.11l.017-48.504c.002-3.909 3.207-7.104 7.125-7.103l74.934.026c3.918 0 7.122 3.199 7.121 7.109l-.018 48.503c-.001 3.91-3.207 7.105-7.125 7.104Z" fill="#6796B1"/><path fill-rule="evenodd" clip-rule="evenodd" d="M105.52 230.224s-1.731 3.479 2.491 3.481l69.816.024s3.493.464 3.493-3.425l-75.8-.08Z" fill="#AED7E8"/><path fill-rule="evenodd" clip-rule="evenodd" d="m179.115 254.545-2.3 4.843s-53.146-12.51-66.179-10.985c-10.945 1.28-12.141-3.367-12.244-4.89l-.015 42.318c-.001 3.91 3.203 7.108 7.121 7.109l74.933.026c3.918.002 7.124-3.194 7.125-7.103l.011-31.437c-3.079 2.717-8.453.119-8.453.119Z" fill="#6E9EBA"/><path fill-rule="evenodd" clip-rule="evenodd" d="M180.432 292.966v-.8l-74.933-.026a6.3 6.3 0 0 1-4.464-1.854 6.276 6.276 0 0 1-1.856-4.452h-.685l.685.015v-.015h-.685l.685.015v-.017l.017-48.504c0-1.735.71-3.307 1.858-4.452a6.301 6.301 0 0 1 4.464-1.852v-.482l-.002.482h.002v-.482l-.002.482.003-.769-.028.768.026.001.003-.769-.028.768.028.001 74.935.026c1.738 0 3.313.708 4.463 1.854a6.277 6.277 0 0 1 1.856 4.453h.696l-.696-.003v.003h.696l-.696-.003.002.064.8-.059h-.802l-.018 48.503a6.276 6.276 0 0 1-1.858 4.452 6.304 6.304 0 0 1-4.463 1.852v.555l.001-.555h-.001v.555l.001-.555-.047.001.043.798v-.8l.043.798-.04-.768.003.768.036-.001-.04-.768.003.768-.003-.699-.002.699h.005l-.003-.699-.002.699h.003c4.362-.003 7.919-3.55 7.923-7.903l.017-48.503-.002-.06-.783.059.785-.005-.002-.053-.783.059.785-.005-.755.005.755.003v-.008l-.755.005.755.003v-.004c-.003-4.352-3.559-7.902-7.921-7.907l-74.934-.026v.801l.03-.801h-.032v.59c-4.361.004-7.918 3.551-7.923 7.903l-.017 48.504h.802l-.802-.017v.02c.003 4.352 3.56 7.9 7.921 7.904l74.934.026.043-.001-.043-.798Z" fill="#22215B"/><path fill-rule="evenodd" clip-rule="evenodd" d="m174.76 287.045-63.585-.022c-3.245-.001-5.895-2.65-5.895-5.886l.012-39.111c.001-3.236 2.655-5.883 5.9-5.882l63.585.022c3.244.001 5.898 2.65 5.897 5.886l-.015 39.109c-.001 3.237-2.655 5.884-5.9 5.883Z" fill="#FFFFFE"/><path fill-rule="evenodd" clip-rule="evenodd" d="m111.175 287.023 63.585.022c3.244.001 5.899-2.646 5.9-5.883l.007-20.08-3.854-4.836c-1.674-2.101-4.874-2.102-6.549-.002l-14.235 17.845-4.779-5.998c-1.769-2.221-5.149-2.222-6.92-.003l-5.103 6.396-15.329-19.242c-1.757-2.206-5.118-2.197-6.862.021l-11.754 14.942-.004 10.931c0 3.236 2.651 5.885 5.897 5.886Z" fill="#FFFFFE"/><path fill-rule="evenodd" clip-rule="evenodd" d="M139.227 274.483 123.9 255.241c-1.757-2.206-5.118-2.197-6.862.021l-1.036 1.317 22.101 24.625s2.465-1.64 1.125-6.722Zm16.018 8.351s4.058-2.874.784-8.745l-4.779-5.998c-1.769-2.221-5.149-2.222-6.92-.003l-.859 1.076 11.773 13.669Zm21.569-26.586c-1.674-2.101-4.874-2.102-6.549-.002l-.44.551 10.839 14.218.004-9.932-3.854-4.836Z" fill="#CBE5E9"/><path fill-rule="evenodd" clip-rule="evenodd" d="M111.175 287.023v.8l63.585.022h.012l-.008-.723v.723h.008l-.008-.723v.723c3.689-.003 6.695-3.002 6.699-6.683l.007-20.08a.796.796 0 0 0-.175-.498l-3.853-4.836a4.97 4.97 0 0 0-3.902-1.879 4.971 4.971 0 0 0-3.901 1.877l-13.607 17.057-4.152-5.211a5.201 5.201 0 0 0-4.088-1.968 5.206 5.206 0 0 0-4.085 1.965l-4.475 5.609-14.701-18.454a5.156 5.156 0 0 0-4.051-1.951 5.155 5.155 0 0 0-4.069 1.976l-11.755 14.942a.801.801 0 0 0-.171.493l-.003 10.93v-.004c.003 3.68 3.007 6.68 6.697 6.684v-1.599a5.085 5.085 0 0 1-3.597-1.495 5.062 5.062 0 0 1-1.498-3.591h-.492l.492.003v-.003h-.492l.492.003v-.004l.004-10.656 11.584-14.725a3.551 3.551 0 0 1 2.81-1.363 3.555 3.555 0 0 1 2.796 1.347l15.327 19.242a.805.805 0 0 0 1.253 0l5.104-6.396a3.592 3.592 0 0 1 2.832-1.362 3.598 3.598 0 0 1 2.835 1.365l4.778 5.998a.804.804 0 0 0 1.253 0l14.236-17.843a3.361 3.361 0 0 1 2.646-1.273 3.363 3.363 0 0 1 2.648 1.274l3.678 4.618-.007 19.8a5.059 5.059 0 0 1-1.499 3.589 5.084 5.084 0 0 1-3.598 1.495h-.012l.009.722v-.722h-.009l.009.722v-.722l-63.585-.022v.8Z" fill="#3F234F"/><path fill-rule="evenodd" clip-rule="evenodd" d="M174.76 287.045v-.8l-63.585-.022a5.085 5.085 0 0 1-3.597-1.495 5.062 5.062 0 0 1-1.498-3.591h-.152l.152.001v-.001h-.152l.152.001-.749-.001.749.016v-.015l-.749-.001.749.016v-.017l.015-39.109a5.056 5.056 0 0 1 1.498-3.59 5.087 5.087 0 0 1 3.598-1.494v-.484l-.001.484h.001v-.484l-.001.484.002-.769-.028.769h.026l.002-.769-.028.769h.03l63.585.022a5.085 5.085 0 0 1 3.598 1.495 5.062 5.062 0 0 1 1.497 3.591h.697l-.697-.003v.003h.697l-.697-.003.002.064.8-.06h-.802l-.012 39.109a5.063 5.063 0 0 1-1.499 3.59 5.087 5.087 0 0 1-3.598 1.494v.692l.003-.692h-.003v.692l.003-.692-.068.002.063.797v-.8l.063.797-.061-.782.005.785.056-.003-.061-.782.005.785-.005-.753-.003.753h.008l-.005-.753-.003.753h.004c3.689-.003 6.695-3.002 6.699-6.683l.012-39.108-.002-.06-.782.059.784-.005-.002-.053-.782.059.784-.005-.755.005.755.003v-.008l-.755.005.755.003v-.003c-.002-3.68-3.007-6.68-6.697-6.684l-63.585-.022v.8l.03-.798-.027-.001h-.005l.001.591v-.591h-.001l.001.591v-.591c-3.688.003-6.695 3.001-6.699 6.681l-.015 39.109.801.001-.801-.017v.018c.003 3.68 3.007 6.68 6.697 6.684l63.585.022.064-.003-.063-.797Z" fill="#3F234F"/><path fill-rule="evenodd" clip-rule="evenodd" d="M165.19 251.163c-.001 3.483-2.834 6.309-6.326 6.308-3.493-.001-6.323-2.827-6.323-6.312.001-3.485 2.834-6.309 6.327-6.309a6.318 6.318 0 0 1 6.322 6.313Z" fill="#99D3D1"/><path fill-rule="evenodd" clip-rule="evenodd" d="M158.864 255.543a6.315 6.315 0 0 1-6.241-5.348 6.294 6.294 0 0 0-.082.964c-.001 3.483 2.83 6.311 6.323 6.312 3.493.001 6.325-2.823 6.326-6.308 0-.33-.031-.649-.08-.964a6.318 6.318 0 0 1-6.246 5.344Z" fill="#46A09A"/><path fill-rule="evenodd" clip-rule="evenodd" d="m165.19 251.163-.802-.001c0 3.042-2.473 5.51-5.522 5.51h-.03l.027.8v-.8a5.517 5.517 0 0 1-5.521-5.511h-.475l.475.002v-.002h-.475l.475.002-.773-.002.773.03.001-.027-.773-.002.773.03.001-.031a5.517 5.517 0 0 1 5.523-5.51h.001v-.777l-.038.776.038.001v-.777l-.038.776.038.001a5.516 5.516 0 0 1 5.522 5.51v.022l.802-.019-.802-.001.802.001.801-.02-.73.018.73-.001v-.017l-.73.018.73-.001h-.07c0-3.926-3.187-7.108-7.122-7.109v.8l.038-.798-.04-.001h-.001c-3.935 0-7.124 3.18-7.126 7.106l.802.001-.801-.031-.001.03v.005l.58-.002h-.58v.002l.58-.002h-.58c.001 3.926 3.189 7.108 7.122 7.109h.028l-.026-.753v.753h.026l-.026-.753v.753h.001c3.935 0 7.122-3.18 7.124-7.105v-.02l-.801.02Z" fill="#3F234F"/><path fill-rule="evenodd" clip-rule="evenodd" d="m175.986 292.966-74.935-.026c-3.917-.002-7.121-3.2-7.12-7.11l.017-48.504c.001-3.909 3.207-7.104 7.125-7.103l74.934.026c3.918 0 7.122 3.199 7.12 7.109l-.017 48.503c-.001 3.91-3.207 7.105-7.124 7.104Z" fill="#6796B1"/><path fill-rule="evenodd" clip-rule="evenodd" d="M101.071 230.224s-1.728 3.479 2.491 3.481l69.816.024s3.493.464 3.493-3.425l-75.8-.08Z" fill="#AED7E8"/><path fill-rule="evenodd" clip-rule="evenodd" d="m174.668 254.545-2.303 4.843s-53.144-12.51-66.177-10.985c-10.945 1.28-12.141-3.367-12.244-4.89l-.015 42.318c-.001 3.91 3.201 7.108 7.121 7.109l74.934.026c3.917.002 7.122-3.194 7.124-7.103l.011-31.437c-3.079 2.717-8.451.119-8.451.119Z" fill="#6E9EBA"/><path fill-rule="evenodd" clip-rule="evenodd" d="M175.986 292.966v-.8l-74.935-.026a6.3 6.3 0 0 1-4.463-1.854 6.277 6.277 0 0 1-1.856-4.452v-.001h-.715l.715.011v-.011h-.715l.715.011v-.012l.017-48.504c0-1.735.71-3.307 1.858-4.452a6.304 6.304 0 0 1 4.464-1.852v-.486l-.001.486h.001v-.486l-.001.486.002-.769-.028.768.026.001.002-.769-.028.768.03.001 74.934.026c1.736 0 3.313.708 4.463 1.854a6.278 6.278 0 0 1 1.856 4.452h.57l-.57-.002v.002h.57l-.57-.002.001.046.801-.04h-.802l-.016 48.503a6.282 6.282 0 0 1-1.859 4.452 6.304 6.304 0 0 1-4.463 1.852v.56l.002-.56h-.002v.56l.002-.56-.047.001.043.798v-.8l.043.798-.041-.768.003.768.037-.001-.041-.768.003.768-.003-.697-.002.697h.005l-.003-.697-.002.697h.003c4.362-.003 7.918-3.55 7.923-7.903l.017-48.503-.001-.041-.767.038.768-.003-.001-.036-.767.038.768-.003-.7.003.7.002v-.005l-.7.003.7.002v-.003c-.003-4.352-3.559-7.9-7.921-7.906l-74.934-.026v.801l.03-.801h-.032l.001.593v-.593h-.001l.001.593v-.593c-4.362.004-7.921 3.551-7.925 7.903l-.016 48.504h.801l-.801-.012v.016c.002 4.352 3.557 7.9 7.921 7.904l74.934.026.044-.001-.043-.798Z" fill="#22215B"/><path fill-rule="evenodd" clip-rule="evenodd" d="m170.312 287.045-63.585-.022c-3.244-.001-5.897-2.65-5.895-5.886l.012-39.111c.001-3.236 2.655-5.883 5.9-5.882l63.585.022c3.245.001 5.897 2.65 5.897 5.886l-.015 39.109c-.001 3.237-2.655 5.884-5.9 5.883Z" fill="#FFFFFE"/><path fill-rule="evenodd" clip-rule="evenodd" d="m106.728 287.023 63.585.022c3.244.001 5.899-2.646 5.9-5.883l.007-20.08-3.854-4.836a4.19 4.19 0 0 0-6.549-.002l-14.235 17.845-4.779-5.998c-1.769-2.221-5.149-2.222-6.92-.003l-5.103 6.396-15.327-19.242c-1.758-2.206-5.119-2.197-6.862.021l-11.755 14.942-.003 10.931c-.001 3.236 2.651 5.885 5.895 5.886Z" fill="#FFFFFE"/><path fill-rule="evenodd" clip-rule="evenodd" d="m134.78 274.483-15.329-19.242c-1.757-2.206-5.118-2.197-6.862.021l-1.037 1.317 22.101 24.625s2.465-1.64 1.126-6.722Zm16.017 8.351s4.06-2.874.783-8.745l-4.778-5.998c-1.769-2.221-5.149-2.222-6.92-.003l-.859 1.076 11.773 13.669Zm21.569-26.586c-1.674-2.101-4.874-2.102-6.549-.002l-.44.551 10.837 14.218.003-9.932-3.853-4.836Z" fill="#CBE5E9"/><path fill-rule="evenodd" clip-rule="evenodd" d="M106.728 287.023v.8l63.585.022h.012l-.009-.723v.723h.009l-.009-.723v.723c3.689-.003 6.695-3.002 6.699-6.683l.007-20.08a.79.79 0 0 0-.175-.497l-3.853-4.836a4.97 4.97 0 0 0-3.902-1.879 4.97 4.97 0 0 0-3.901 1.877l-13.607 17.057-4.152-5.211a5.201 5.201 0 0 0-4.088-1.968 5.206 5.206 0 0 0-4.085 1.965l-4.475 5.609-14.701-18.454a5.158 5.158 0 0 0-4.051-1.951 5.156 5.156 0 0 0-4.069 1.976l-11.755 14.942a.802.802 0 0 0-.171.493l-.003 10.93v-.004c.003 3.68 3.007 6.68 6.697 6.684v-1.599a5.087 5.087 0 0 1-3.598-1.495 5.067 5.067 0 0 1-1.497-3.591h-.49l.49.003v-.003h-.49l.49.003v-.004l.004-10.656 11.585-14.725a3.549 3.549 0 0 1 2.809-1.363 3.555 3.555 0 0 1 2.796 1.347l15.327 19.242a.804.804 0 0 0 1.254 0l5.103-6.396a3.592 3.592 0 0 1 2.832-1.362 3.597 3.597 0 0 1 2.834 1.365l4.778 5.996a.805.805 0 0 0 1.254 0l14.235-17.843a3.364 3.364 0 0 1 2.647-1.273 3.361 3.361 0 0 1 2.648 1.274l3.678 4.618-.007 19.8a5.054 5.054 0 0 1-1.498 3.589 5.081 5.081 0 0 1-3.598 1.495h-.011l.008.72v-.72h-.008l.008.72v-.72l-63.585-.022v.8Z" fill="#3F234F"/><path fill-rule="evenodd" clip-rule="evenodd" d="M170.312 287.045v-.8l-63.585-.022a5.087 5.087 0 0 1-3.598-1.495 5.066 5.066 0 0 1-1.497-3.591h-.484l.484.002v-.002h-.484l.484.002-.757-.002.757.02v-.018l-.757-.002.757.02v-.021l.015-39.109a5.056 5.056 0 0 1 1.498-3.59 5.086 5.086 0 0 1 3.598-1.494v-.481l-.002.481h.001v-.481l-.001.481.002-.768-.028.768h.026l.002-.768-.028.768h.03l63.585.022a5.086 5.086 0 0 1 3.598 1.495 5.058 5.058 0 0 1 1.497 3.591h.489l-.489-.001v.001h.489l-.489-.001.001.043.801-.04h-.802l-.015 39.109a5.058 5.058 0 0 1-1.498 3.59 5.085 5.085 0 0 1-3.598 1.494v.69l.003-.69h-.003v.69l.003-.69-.068.002.063.797v-.8l.063.797-.061-.782.005.785.056-.003-.061-.782.005.785-.005-.753-.003.753h.008l-.005-.753-.003.753h.004c3.689-.003 6.695-3.002 6.699-6.683l.015-39.108-.001-.041-.776.038.777-.005-.001-.032-.776.038.777-.005-.738.005.738.001v-.007l-.738.005.738.001v-.001c-.003-3.68-3.007-6.68-6.697-6.684l-63.585-.022-.001.8.03-.798-.027-.001h-.005l.001.591v-.589h-.001l.001.591v-.591c-3.688.003-6.694 3.001-6.699 6.681l-.015 39.109.802.001-.802-.021v.022c.003 3.68 3.007 6.68 6.697 6.684l63.585.022.063-.003-.063-.797Z" fill="#3F234F"/><path fill-rule="evenodd" clip-rule="evenodd" d="M160.743 251.163c-.001 3.483-2.834 6.309-6.326 6.308-3.493-.001-6.323-2.827-6.323-6.312.001-3.485 2.834-6.309 6.326-6.309 3.493.001 6.323 2.827 6.323 6.313Z" fill="#99D3D1"/><path fill-rule="evenodd" clip-rule="evenodd" d="M154.418 255.543a6.315 6.315 0 0 1-6.241-5.348 6.294 6.294 0 0 0-.082.964c-.001 3.483 2.83 6.311 6.323 6.312 3.493.001 6.325-2.823 6.326-6.308a6.152 6.152 0 0 0-.082-.964 6.314 6.314 0 0 1-6.242 5.344Z" fill="#46A09A"/><path fill-rule="evenodd" clip-rule="evenodd" d="m160.743 251.163-.801-.001a5.518 5.518 0 0 1-5.523 5.51h-.031l.028.8v-.8a5.517 5.517 0 0 1-5.521-5.511h-.763l.763.02v-.02h-.763l.763.02v-.021c0-3.042 2.473-5.51 5.523-5.51h.001v-.777l-.038.776.038.001v-.777l-.038.776.038.001a5.518 5.518 0 0 1 5.522 5.511v.02l.801-.018-.801-.001.801.001.802-.019-.755.018h.755v-.018l-.755.018h.755v-.001c-.001-3.926-3.189-7.109-7.122-7.11l-.001.8.038-.798-.038-.001h-.001c-3.935 0-7.124 3.18-7.125 7.106l.801.001-.801-.022v.023c0 3.926 3.187 7.108 7.122 7.109h.027l-.026-.753v.753h.026l-.026-.753v.753h.001c3.934 0 7.122-3.18 7.125-7.105v-.019l-.802.019Z" fill="#3F234F"/><path fill-rule="evenodd" clip-rule="evenodd" d="m212.843 263.924-16.951-16.913a2.071 2.071 0 0 0-2.924 0l-16.952 16.913c-1.302 1.299-.378 3.523 1.463 3.523h1.983a2.065 2.065 0 0 1 2.069 2.063v20.704a2.065 2.065 0 0 0 2.068 2.063h21.664a2.065 2.065 0 0 0 2.068-2.063v-20.703a2.065 2.065 0 0 1 2.068-2.063h1.983c1.843 0 2.764-2.224 1.463-3.523Z" fill="#F35656"/><path fill-rule="evenodd" clip-rule="evenodd" d="M207.33 290.214V269.51a2.065 2.065 0 0 1 2.068-2.063h1.983c1.843 0 2.764-2.224 1.463-3.523l-2.336-2.329c.104 1.841-.264 3.507-1.942 3.507-3.753 0-3.324 4.595-3.324 9.724 0 3.89-.008 13.188-.012 17.451h.034a2.065 2.065 0 0 0 2.068-2.063Z" fill="#AB4040"/><path fill-rule="evenodd" clip-rule="evenodd" d="M184.289 261.824c2.615-2.398 9.672-9.104 13.587-12.832l-1.984-1.981a2.071 2.071 0 0 0-2.924 0l-16.952 16.913c-1.302 1.299-.378 3.523 1.463 3.523h1.983a2.065 2.065 0 0 1 2.069 2.063v20.703a2.065 2.065 0 0 0 2.068 2.063h2.99V267.41s-6-2.195-2.299-5.586Z" fill="#F26A6A"/><path fill-rule="evenodd" clip-rule="evenodd" d="m212.843 263.924.566-.565-16.951-16.913a2.871 2.871 0 0 0-4.057 0l-16.952 16.913a2.822 2.822 0 0 0-.844 2.01 2.914 2.914 0 0 0 .783 1.982 2.835 2.835 0 0 0 2.089.896h1.983a1.268 1.268 0 0 1 1.268 1.263v20.704a2.867 2.867 0 0 0 2.87 2.862h21.664a2.866 2.866 0 0 0 2.868-2.862V269.51a1.266 1.266 0 0 1 1.268-1.263h1.983a2.841 2.841 0 0 0 2.09-.895 2.915 2.915 0 0 0 .783-1.983 2.823 2.823 0 0 0-.845-2.01l-.566.565-.566.565c.27.273.371.569.374.879a1.318 1.318 0 0 1-.353.892 1.225 1.225 0 0 1-.918.388h-1.983a2.866 2.866 0 0 0-2.87 2.862v20.704a1.269 1.269 0 0 1-1.266 1.264h-21.664a1.268 1.268 0 0 1-1.266-1.264V269.51a2.867 2.867 0 0 0-2.871-2.862h-1.983a1.221 1.221 0 0 1-.917-.388 1.321 1.321 0 0 1-.354-.892 1.215 1.215 0 0 1 .376-.879l16.951-16.913a1.259 1.259 0 0 1 .896-.369 1.259 1.259 0 0 1 .895.369l16.951 16.913.566-.565Z" fill="#22215B"/><path fill-rule="evenodd" clip-rule="evenodd" d="m170.867 292.966-74.934-.026c-3.918-.002-7.121-3.2-7.121-7.11l.018-48.504c0-3.909 3.207-7.104 7.124-7.103l74.934.026c3.918 0 7.122 3.199 7.121 7.109l-.017 48.503c-.002 3.91-3.207 7.105-7.125 7.104Z" fill="#8CB7D7"/><path fill-rule="evenodd" clip-rule="evenodd" d="M95.954 230.224s-1.729 3.479 2.491 3.481l69.818.024s3.493.464 3.493-3.425l-75.8-.08Z" fill="#AED7E8"/><path fill-rule="evenodd" clip-rule="evenodd" d="m169.55 254.545-2.301 4.843s-53.146-12.51-66.177-10.985c-10.945 1.28-12.141-3.367-12.244-4.89l-.016 42.318c0 3.91 3.203 7.108 7.121 7.109l74.934.026c3.918.002 7.122-3.194 7.125-7.103l.009-31.437c-3.079 2.717-8.451.119-8.451.119Z" fill="#6E9EBA"/><path fill-rule="evenodd" clip-rule="evenodd" d="m170.867 292.966.001-.8-74.935-.026a6.301 6.301 0 0 1-4.463-1.854 6.277 6.277 0 0 1-1.856-4.452v-.001h-.715l.715.011v-.011h-.715l.715.011v-.012l.017-48.504a6.278 6.278 0 0 1 1.859-4.452 6.304 6.304 0 0 1 4.464-1.852v-.486l-.002.486h.002v-.486l-.002.486.002-.771-.028.769.026.001.002-.771-.028.769.03.001 74.934.026c1.738 0 3.314.708 4.463 1.854a6.275 6.275 0 0 1 1.856 4.452v.03l.802-.026h-.802l-.017 48.503a6.281 6.281 0 0 1-1.858 4.452 6.305 6.305 0 0 1-4.463 1.852v.56l.002-.56h-.002v.56l.002-.56-.048.001.043.798.001-.8-.001.8.043.798-.04-.768.003.768.036-.001-.04-.768.003.768-.003-.696-.002.696h.005l-.003-.696-.002.696h.003c4.362-.003 7.918-3.55 7.922-7.903l.017-48.503v-.026l-.748.024.748-.003v-.021l-.748.024.748-.003-.658.003h.658v-.003l-.658.003h.658v-.001c-.002-4.352-3.559-7.9-7.921-7.906l-74.934-.026v.801l.03-.801h-.034l.002.593v-.593h-.002l.002.593v-.593c-4.363.004-7.921 3.551-7.925 7.903l-.017 48.504h.801l-.801-.012v.016c.002 4.352 3.559 7.9 7.921 7.904l74.935.026.043-.001-.043-.798Z" fill="#22215B"/><path fill-rule="evenodd" clip-rule="evenodd" d="m165.194 287.045-63.585-.022c-3.245-.001-5.898-2.65-5.895-5.886l.012-39.111c.001-3.236 2.655-5.883 5.9-5.882l63.585.022c3.242.001 5.897 2.65 5.895 5.886l-.015 39.109c0 3.237-2.655 5.884-5.899 5.883Z" fill="#FFFFFE"/><path fill-rule="evenodd" clip-rule="evenodd" d="m101.611 287.023 63.585.022c3.244.001 5.899-2.646 5.899-5.883l.007-20.08-3.853-4.836a4.19 4.19 0 0 0-6.549-.002l-14.236 17.845-4.778-5.998c-1.769-2.221-5.149-2.222-6.921-.003l-5.102 6.396-15.329-19.242c-1.758-2.206-5.118-2.197-6.862.021l-11.755 14.942-.004 10.931c0 3.236 2.651 5.885 5.895 5.886Z" fill="#FFFFFE"/><path fill-rule="evenodd" clip-rule="evenodd" d="m129.664 274.483-15.329-19.242c-1.757-2.206-5.118-2.197-6.862.021l-1.037 1.317 22.102 24.625s2.465-1.64 1.126-6.722Zm16.017 8.351s4.058-2.874.783-8.745l-4.778-5.998c-1.769-2.221-5.151-2.222-6.921-.003l-.859 1.076 11.775 13.669Zm21.568-26.586a4.191 4.191 0 0 0-6.549-.002l-.44.551 10.839 14.218.003-9.932-3.853-4.836Z" fill="#CBE5E9"/><path fill-rule="evenodd" clip-rule="evenodd" d="M101.611 287.023v.8l63.585.022h.012l-.009-.723v.723h.009l-.009-.723v.723c3.69-.003 6.695-3.002 6.699-6.683l.007-20.08a.788.788 0 0 0-.173-.497l-3.853-4.836a4.971 4.971 0 0 0-3.902-1.879 4.968 4.968 0 0 0-3.901 1.877l-13.609 17.057-4.151-5.211a5.203 5.203 0 0 0-4.088-1.968 5.207 5.207 0 0 0-4.087 1.965l-4.475 5.609-14.702-18.454a5.155 5.155 0 0 0-4.05-1.951 5.158 5.158 0 0 0-4.07 1.976l-11.756 14.944a.797.797 0 0 0-.171.493l-.003 10.93v-.004c.002 3.68 3.007 6.68 6.697 6.684v-1.599a5.087 5.087 0 0 1-3.598-1.495 5.066 5.066 0 0 1-1.496-3.591h-.492l.492.003v-.003h-.492l.492.003v-.004l.003-10.656 11.585-14.725a3.551 3.551 0 0 1 2.81-1.363 3.55 3.55 0 0 1 2.795 1.347l15.329 19.242a.802.802 0 0 0 1.254 0l5.102-6.396a3.594 3.594 0 0 1 2.833-1.362 3.598 3.598 0 0 1 2.834 1.365l4.778 5.998a.804.804 0 0 0 1.254 0l14.235-17.843a3.364 3.364 0 0 1 2.647-1.273 3.364 3.364 0 0 1 2.648 1.274l3.678 4.618-.007 19.8a5.059 5.059 0 0 1-1.498 3.589 5.086 5.086 0 0 1-3.598 1.495h-.011l.009.722v-.722h-.009l.009.722v-.722l-63.585-.022v.8Z" fill="#22215B"/><path fill-rule="evenodd" clip-rule="evenodd" d="M165.194 287.045v-.8l-63.585-.022a5.087 5.087 0 0 1-3.598-1.495 5.066 5.066 0 0 1-1.496-3.591h-.733l.733.009v-.009h-.733l.733.009v-.011l.012-39.109a5.059 5.059 0 0 1 1.499-3.59 5.086 5.086 0 0 1 3.598-1.494v-.484l-.002.484h.002v-.484l-.002.484.003-.769-.028.769h.026l.003-.769-.028.769h.028l63.586.022a5.085 5.085 0 0 1 3.597 1.495 5.063 5.063 0 0 1 1.498 3.591v.021l.801-.02h-.801l-.015 39.109a5.063 5.063 0 0 1-1.498 3.59 5.089 5.089 0 0 1-3.598 1.494v.692l.003-.692h-.003v.692l.003-.692-.068.002.064.797v-.8l.063.797-.061-.782.004.785.057-.003-.061-.782.004.785-.004-.753-.003.753h.007l-.004-.753-.003.753h.003c3.69-.003 6.695-3.002 6.699-6.683l.015-39.108v-.021l-.76.019h.76v-.019l-.76.019h.76c-.003-3.68-3.009-6.68-6.697-6.684l-63.585-.022v.8l.03-.798-.028-.001h-.005l.002.59v-.59h-.002l.002.59v-.59c-3.689.003-6.695 3.001-6.699 6.681l-.012 39.109.801.001-.801-.011v.012c.002 3.68 3.007 6.68 6.697 6.684l63.585.022.064-.003-.063-.797Z" fill="#22215B"/><path fill-rule="evenodd" clip-rule="evenodd" d="M155.624 251.163c-.001 3.483-2.833 6.309-6.326 6.308-3.493-.001-6.323-2.827-6.323-6.312.001-3.485 2.834-6.309 6.327-6.309a6.318 6.318 0 0 1 6.322 6.313Z" fill="#99D3D1"/><path fill-rule="evenodd" clip-rule="evenodd" d="M149.298 255.543a6.315 6.315 0 0 1-6.24-5.348 6.158 6.158 0 0 0-.083.964c-.001 3.483 2.83 6.311 6.323 6.312 3.493.001 6.325-2.823 6.326-6.308 0-.33-.031-.649-.08-.964a6.315 6.315 0 0 1-6.246 5.344Z" fill="#46A09A"/><path fill-rule="evenodd" clip-rule="evenodd" d="m155.624 251.163-.801-.001a5.518 5.518 0 0 1-5.523 5.51h-.03l.027.8v-.8a5.517 5.517 0 0 1-5.521-5.51v-.001h-.719l.719.012v-.012h-.719l.719.012v-.012a5.517 5.517 0 0 1 5.523-5.51h.001v-.777l-.037.776.037.001v-.777l-.037.776.037.001a5.517 5.517 0 0 1 5.522 5.511v.02l.801-.018-.801-.001.801.001.802-.019-.755.018h.755v-.018l-.755.018h.755v-.001c0-3.926-3.189-7.109-7.122-7.11v.8l.038-.798-.04-.001h-.001c-3.935 0-7.122 3.18-7.125 7.106l.801.001-.801-.016v.018c0 3.926 3.189 7.106 7.122 7.108h.028l-.026-.753v.753h.026l-.026-.753v.753h.001c3.935 0 7.122-3.18 7.125-7.105v-.019l-.802.019Z" fill="#3F234F"/><path fill-rule="evenodd" clip-rule="evenodd" d="M158.515 128.507c-2.401 0-4.718.359-6.902 1.019-3.985-16.751-19.075-29.211-37.084-29.211-17.896 0-32.908 12.308-37.006 28.901a23.906 23.906 0 0 0-5.778-.709c-13.125 0-23.764 10.617-23.764 23.711 0 13.096 10.641 23.711 23.764 23.711h36.974a38.505 38.505 0 0 0 11.624 0h38.172c13.125 0 23.764-10.616 23.764-23.711 0-13.094-10.639-23.711-23.764-23.711Z" fill="#567DF4"/><path fill-rule="evenodd" clip-rule="evenodd" d="M108.719 175.929a38.497 38.497 0 0 0 11.623 0h38.172c13.125 0 23.764-10.616 23.764-23.711 0-13.094-10.639-23.711-23.764-23.711a23.818 23.818 0 0 0-6.903 1.019s20.143 2.66 20.143 22.468c0 19.806-17.685 18.421-17.685 18.421H67.196s-5.189-.032-11.619-.827a23.706 23.706 0 0 0 16.169 6.341h36.974Z" fill="#415EB6"/><path fill-rule="evenodd" clip-rule="evenodd" d="M81.429 135.207s12.912-39.636 53.203-29.175a37.997 37.997 0 0 0-20.101-5.717c-17.896 0-32.908 12.308-37.006 28.901a23.906 23.906 0 0 0-5.778-.709c-13.125 0-23.764 10.617-23.764 23.711a23.564 23.564 0 0 0 2.318 10.223c.312-11.869 4.595-32.277 31.129-27.236Z" fill="#DDEEFB"/><path fill-rule="evenodd" clip-rule="evenodd" d="m159.768 268.483-82.586 7.955c-4.316.415-8.192-2.767-8.608-7.075l-5.172-53.458c-.417-4.306 2.775-8.171 7.093-8.586l82.585-7.955c4.317-.415 8.192 2.769 8.608 7.075l5.172 53.458c.417 4.307-2.775 8.172-7.091 8.586Z" fill="#8CB7D7"/><path fill-rule="evenodd" clip-rule="evenodd" d="m159.768 268.483-.078-.796-82.585 7.954a7.042 7.042 0 0 1-.682.032c-3.59.002-6.703-2.754-7.05-6.391l-5.172-53.457a7.061 7.061 0 0 1-.032-.681c-.002-3.583 2.759-6.688 6.403-7.035l82.586-7.955a7.15 7.15 0 0 1 .682-.032c3.59-.002 6.703 2.754 7.05 6.391l5.172 53.457a7.065 7.065 0 0 1 .034.681c.002 3.583-2.76 6.688-6.405 7.036l.078.796.078.797c4.479-.435 7.849-4.22 7.851-8.627 0-.276-.012-.554-.04-.833l-5.172-53.457c-.437-4.47-4.23-7.834-8.646-7.835a8.09 8.09 0 0 0-.835.041l-82.586 7.954c-4.479.435-7.849 4.22-7.854 8.627 0 .276.015.554.041.833l5.172 53.457c.437 4.471 4.23 7.834 8.646 7.835.276 0 .555-.012.835-.04l82.586-7.955-.078-.797Z" fill="#22215B"/><path fill-rule="evenodd" clip-rule="evenodd" d="m152.882 262.562-70.078 6.751c-3.575.344-6.782-2.292-7.127-5.859l-4.171-43.103c-.344-3.567 2.298-6.767 5.874-7.113l70.078-6.751c3.574-.344 6.782 2.292 7.127 5.859l4.17 43.103c.346 3.567-2.297 6.767-5.872 7.113Z" fill="#FFFFFE"/><path fill-rule="evenodd" clip-rule="evenodd" d="m82.804 269.312 70.078-6.751c3.575-.344 6.217-3.545 5.872-7.113l-2.142-22.13-4.763-4.919c-2.07-2.137-5.596-1.797-7.219.696l-13.778 21.181-5.909-6.102c-2.188-2.259-5.913-1.9-7.627.736l-4.938 7.591-18.954-19.573c-2.173-2.243-5.876-1.875-7.561.755l-11.354 17.719 1.166 12.049c.346 3.567 3.553 6.203 7.127 5.859Z" fill="#FFFFFE"/><path fill-rule="evenodd" clip-rule="evenodd" d="m112.381 252.504-18.953-19.573c-2.173-2.243-5.876-1.875-7.563.755l-.999 1.562 26.993 24.783s2.541-2.07.522-7.527Zm18.546 7.497s4.166-3.598-.072-9.721l-5.908-6.102c-2.188-2.259-5.914-1.9-7.628.736l-.831 1.276L130.926 260Zm20.925-31.599c-2.071-2.137-5.596-1.797-7.219.696l-.425.653 13.466 14.516-1.058-10.947-4.763-4.919Z" fill="#D8FFFF"/><path fill-rule="evenodd" clip-rule="evenodd" d="m82.804 269.312.078.797 70.078-6.752a7.344 7.344 0 0 0 6.627-7.281c0-.231-.012-.467-.034-.701l-2.142-22.13a.798.798 0 0 0-.221-.479l-4.764-4.919a5.413 5.413 0 0 0-3.902-1.655 5.427 5.427 0 0 0-4.563 2.472l-13.229 20.339-5.209-5.379a5.668 5.668 0 0 0-4.091-1.735 5.683 5.683 0 0 0-4.783 2.59l-4.39 6.749-18.253-18.849a5.617 5.617 0 0 0-4.052-1.719 5.632 5.632 0 0 0-4.76 2.597L73.84 250.976a.797.797 0 0 0-.123.506l1.166 12.05c.368 3.774 3.569 6.608 7.297 6.612.231 0 .469-.012.705-.034l-.078-.797-.076-.797a5.462 5.462 0 0 1-.552.026c-2.902.002-5.42-2.226-5.702-5.167l-1.139-11.773 11.205-17.487a4.024 4.024 0 0 1 3.411-1.86 4.009 4.009 0 0 1 2.9 1.23l18.953 19.574a.801.801 0 0 0 1.247-.12l4.94-7.592a4.076 4.076 0 0 1 3.44-1.861 4.065 4.065 0 0 1 2.941 1.246l5.908 6.102a.8.8 0 0 0 1.247-.12l13.779-21.181a3.815 3.815 0 0 1 3.22-1.742 3.798 3.798 0 0 1 2.751 1.167l4.57 4.717 2.116 21.853c.017.185.026.367.026.549.002 2.897-2.233 5.41-5.18 5.69l-70.08 6.753.078.797Z" fill="#22215B"/><path fill-rule="evenodd" clip-rule="evenodd" d="m152.882 262.562-.078-.797-70.077 6.751a5.446 5.446 0 0 1-.552.026c-2.902.002-5.42-2.227-5.702-5.167l-4.17-43.103a5.655 5.655 0 0 1-.026-.55c-.002-2.896 2.231-5.409 5.178-5.69l70.078-6.751c.186-.018.368-.026.551-.026 2.902-.002 5.422 2.228 5.704 5.168l4.17 43.103c.018.185.027.367.027.549.002 2.897-2.233 5.409-5.18 5.69l.155 1.591a7.341 7.341 0 0 0 6.593-7.983l-4.171-43.104c-.368-3.773-3.569-6.609-7.297-6.612-.233 0-.469.011-.705.034l-70.078 6.752a7.343 7.343 0 0 0-6.593 7.984l4.171 43.104c.368 3.773 3.569 6.608 7.297 6.612.231 0 .469-.011.705-.032l70.078-6.752-.078-.796Z" fill="#22215B"/><path fill-rule="evenodd" clip-rule="evenodd" d="M138.495 224.037c.37 3.841-2.448 7.254-6.297 7.625-3.849.37-7.271-2.443-7.643-6.283-.371-3.841 2.448-7.254 6.297-7.625 3.849-.37 7.271 2.44 7.643 6.283Z" fill="#34DEDE"/><path fill-rule="evenodd" clip-rule="evenodd" d="M131.993 229.539a6.995 6.995 0 0 1-7.451-5.23 7.011 7.011 0 0 0 .012 1.071c.371 3.841 3.793 6.654 7.643 6.283 3.849-.37 6.67-3.785 6.297-7.625a7.007 7.007 0 0 0-.192-1.053 6.988 6.988 0 0 1-6.311 6.554Z" fill="#11A4A4"/><path fill-rule="evenodd" clip-rule="evenodd" d="m138.495 224.037-.797.076a6.184 6.184 0 0 1-5.577 6.755 6.558 6.558 0 0 1-.604.028c-3.153 0-5.856-2.395-6.164-5.594a6.191 6.191 0 0 1 6.182-6.782c3.153 0 5.856 2.395 6.164 5.593l.797-.076.797-.078c-.391-4.025-3.783-7.038-7.758-7.038a7.79 7.79 0 0 0-7.776 8.534c.391 4.027 3.785 7.038 7.758 7.039a7.794 7.794 0 0 0 7.776-8.535l-.797.078Zm7.519-48.108v34.995a.801.801 0 0 0 1.603 0v-34.995a.799.799 0 0 0-.802-.798.8.8 0 0 0-.802.798Zm-66.868 0v40.907a.801.801 0 0 0 1.601 0v-40.907a.799.799 0 0 0-.801-.798.8.8 0 0 0-.802.798Z" fill="#22215B"/><path fill-rule="evenodd" clip-rule="evenodd" d="M82.908 216.837a2.956 2.956 0 0 1-2.958 2.953 2.955 2.955 0 0 1-2.958-2.953 2.955 2.955 0 0 1 2.958-2.953 2.957 2.957 0 0 1 2.958 2.953Zm66.868-5.913a2.956 2.956 0 0 1-2.959 2.953 2.955 2.955 0 0 1-2.958-2.953 2.955 2.955 0 0 1 2.958-2.953 2.955 2.955 0 0 1 2.959 2.953Z" fill="#22215B"/><path fill-rule="evenodd" clip-rule="evenodd" d="M89.691 286.814a6.298 6.298 0 0 1-.078-.979v-.002l.003-9.789 5.298-.509-.001 5.603v-.004a6.641 6.641 0 0 0 1.301 3.949l-6.523 1.727Z" fill="#52748B"/><path fill-rule="evenodd" clip-rule="evenodd" d="m88.812 287.045.285-10.952.522-.051-.004 9.789v.002c0 .332.026.661.078.979l-.879.231Z" fill="#281634"/><path fill-rule="evenodd" clip-rule="evenodd" d="m129.664 273.199-.749-.941 1.625-.157-.876 1.098Zm16.134-1.234-.987-1.239 3.588-.346-.906 1.134-1.696.45Zm-47.877 12.67a5.058 5.058 0 0 1-1.405-3.495v-.004l.002-5.759 24.659-2.376 3.973 4.426-27.23 7.205Zm32.069-8.486a11.365 11.365 0 0 0-.144-.888.81.81 0 0 0 .445-.28l2.467-3.093 3.228-.311 2.094 2.432-8.09 2.141Zm20.098-5.319.529-.662 3.106-.299-3.635.962Z" fill="#B6B8B5"/><path fill-rule="evenodd" clip-rule="evenodd" d="m125.149 277.43-3.973-4.426 5.836-.561 2.023 2.539a.804.804 0 0 0 .628.301.76.76 0 0 0 .181-.021c.063.31.111.606.144.888l-4.84 1.28Zm12.929-3.421-2.094-2.431 6.925-.667 1.196 1.502-6.026 1.596Z" fill="#90A5A9"/><path fill-rule="evenodd" clip-rule="evenodd" d="M129.664 275.283h-.001a.802.802 0 0 1-.626-.301l-2.023-2.539 1.901-.184.749.941.877-1.098 2.217-.214-2.467 3.093a.804.804 0 0 1-.628.301Zm14.442-2.87-1.196-1.502 1.9-.184.987 1.239-1.69.446Zm3.387-.896.906-1.134 2.218-.214-.529.662-2.596.687Zm-51.279 13.57a6.639 6.639 0 0 1-1.301-3.949v-.002l.001-5.603 1.603-.155-.002 5.759v.004a5.058 5.058 0 0 0 1.405 3.495l-1.707.451Z" fill="#281634"/><path fill-rule="evenodd" clip-rule="evenodd" d="m89.097 276.093.009-.376 73.95-8.32-9.335 2.469-3.106.299-2.218.214-3.588.347-1.9.184-6.925.666-3.228.311-2.217.214-1.626.157-1.901.184-5.836.561-24.659 2.376-1.603.155-5.296.509-.522.051Z" fill="#281634"/><path fill-rule="evenodd" clip-rule="evenodd" d="M205.225 239.34a2.473 2.473 0 0 1-2.476 2.469 2.473 2.473 0 0 1-2.476-2.469 2.473 2.473 0 0 1 2.476-2.469 2.473 2.473 0 0 1 2.476 2.469Zm16.25 2.265a1.237 1.237 0 0 1-2.476 0 1.237 1.237 0 0 1 1.238-1.235 1.237 1.237 0 0 1 1.238 1.235ZM43.113 162.443a1.237 1.237 0 0 1-2.476 0 1.237 1.237 0 0 1 1.238-1.235 1.234 1.234 0 0 1 1.237 1.235Zm160.875 7.453a1.237 1.237 0 0 1-2.475 0 1.237 1.237 0 0 1 2.475 0ZM69.67 189.941a1.237 1.237 0 0 1-2.476 0 1.237 1.237 0 0 1 1.238-1.235c.685 0 1.238.553 1.238 1.235Zm133.08 37.398a1.237 1.237 0 0 1-2.476 0 1.237 1.237 0 0 1 1.238-1.235 1.235 1.235 0 0 1 1.238 1.235Zm-45.887-45.237a1.237 1.237 0 0 1-2.476 0 1.237 1.237 0 0 1 1.238-1.235 1.237 1.237 0 0 1 1.238 1.235ZM51.897 235.629a1.235 1.235 0 0 1-1.237 1.235 1.237 1.237 0 1 1 0-2.469 1.236 1.236 0 0 1 1.237 1.235Zm-10.903-66.968a2.473 2.473 0 0 1-2.476 2.469 2.473 2.473 0 0 1-2.475-2.469 2.473 2.473 0 0 1 2.476-2.469 2.473 2.473 0 0 1 2.475 2.469Zm158.578 9.737a2.473 2.473 0 0 1-2.476 2.469 2.473 2.473 0 0 1-2.476-2.469 2.473 2.473 0 0 1 2.476-2.469 2.473 2.473 0 0 1 2.476 2.469ZM44.351 248.167a2.473 2.473 0 0 1-2.476 2.468 2.472 2.472 0 0 1-2.476-2.468 2.472 2.472 0 0 1 2.476-2.469 2.473 2.473 0 0 1 2.476 2.469Zm13.7-51.305a2.472 2.472 0 0 1-2.476 2.468 2.472 2.472 0 0 1-2.476-2.468 2.473 2.473 0 0 1 2.476-2.469 2.473 2.473 0 0 1 2.476 2.469Z" fill="#22215B"/><path fill-rule="evenodd" clip-rule="evenodd" d="m89.221 265.118-24.945-24.889a3.046 3.046 0 0 0-4.306 0l-24.945 24.889c-1.916 1.912-.558 5.183 2.153 5.183h2.918a3.039 3.039 0 0 1 3.044 3.036v30.47a3.039 3.039 0 0 0 3.042 3.036h31.881a3.039 3.039 0 0 0 3.044-3.036v-30.47a3.039 3.039 0 0 1 3.044-3.036h2.918c2.711 0 4.069-3.271 2.153-5.183Z" fill="#FFDE6C"/><path fill-rule="evenodd" clip-rule="evenodd" d="M81.108 303.806v-30.47a3.039 3.039 0 0 1 3.042-3.036h2.919c2.711 0 4.069-3.271 2.152-5.183l-3.437-3.429c.155 2.71-.387 5.16-2.855 5.16-5.525 0-4.896 6.762-4.896 14.309 0 5.725-.011 19.408-.018 25.684h.05a3.039 3.039 0 0 0 3.044-3.036Z" fill="#CC8900"/><path fill-rule="evenodd" clip-rule="evenodd" d="M47.199 262.026c3.849-3.528 14.234-13.396 19.995-18.884l-2.919-2.913a3.046 3.046 0 0 0-4.306 0l-24.944 24.888c-1.916 1.912-.558 5.183 2.153 5.183h2.918a3.039 3.039 0 0 1 3.044 3.036v30.47a3.039 3.039 0 0 0 3.042 3.036h4.4v-36.594s-8.829-3.229-3.384-8.223Z" fill="#FFB110"/><path fill-rule="evenodd" clip-rule="evenodd" d="m89.221 265.118.568-.565-24.946-24.889a3.837 3.837 0 0 0-2.719-1.124 3.837 3.837 0 0 0-2.717 1.124l-24.946 24.889a3.773 3.773 0 0 0-1.131 2.69 3.909 3.909 0 0 0 1.052 2.66 3.786 3.786 0 0 0 2.797 1.197h2.919a2.236 2.236 0 0 1 2.241 2.236v30.47a3.839 3.839 0 0 0 3.845 3.835h31.88a3.839 3.839 0 0 0 3.845-3.835v-30.47a2.236 2.236 0 0 1 2.241-2.236h2.918a3.786 3.786 0 0 0 2.799-1.197 3.912 3.912 0 0 0 1.052-2.66 3.774 3.774 0 0 0-1.131-2.69l-1.134 1.13c.469.471.659 1.011.662 1.561a2.318 2.318 0 0 1-.62 1.569 2.179 2.179 0 0 1-1.628.69H84.15a3.841 3.841 0 0 0-3.845 3.835v30.47a2.219 2.219 0 0 1-.657 1.581 2.23 2.23 0 0 1-1.585.655H46.182a2.23 2.23 0 0 1-1.585-.655 2.226 2.226 0 0 1-.657-1.581v-30.47a3.841 3.841 0 0 0-3.844-3.835h-2.919a2.175 2.175 0 0 1-1.628-.69 2.32 2.32 0 0 1-.62-1.569c.003-.55.195-1.088.662-1.561l24.946-24.89a2.239 2.239 0 0 1 1.585-.655 2.239 2.239 0 0 1 1.585.655l24.946 24.89.566-.565Z" fill="#22215B"/></svg>